# xmcd
#
# Track frame offsets: 
#        150
#        17875
#        35022
#        53410
#        72075
#        95015
#        115772
#        142402
#        161380
#        178847
#        194707
#        215177
#
# Disc length: 3013 seconds
#
# Revision: 0
# Processed by: cddbd v1.5.2PL0 Copyright (c) Steve Scherf et al.
# Submitted via: ExactAudioCopy v1.0b4
#
DISCID=b80bc30c
DTITLE=Downchild Blues Band - Lucky 13
DYEAR=1997
DGENRE=Blues, Modern Blues, Electric Blues
TTITLE0=Dew Drop Inn
TTITLE1=Shoot That Moon
TTITLE2=All Over
TTITLE3=Last Chance To Dance
TTITLE4=When The Morning Comes
TTITLE5=Take Me Back Annie
TTITLE6=Soaring
TTITLE7=I Know You're Lyin'
TTITLE8=My First Letter
TTITLE9=Changed My Ways
TTITLE10=Screamin'
TTITLE11=Lucky 13
EXTD=
EXTT0=
EXTT1=
EXTT2=
EXTT3=
EXTT4=
EXTT5=
EXTT6=
EXTT7=
EXTT8=
EXTT9=
EXTT10=
EXTT11=
PLAYORDER=
